<?xml version="1.0" encoding="UTF-8" ?>
<svg version="1.1" width="280" height="540" xmlns="http://www.w3.org/2000/svg" shape-rendering="crispEdges">
<rect x="90" y="0" width="10" height="20" fill="#48130F" />
<rect x="180" y="0" width="10" height="20" fill="#48130F" />
<rect x="80" y="10" width="10" height="30" fill="#48130F" />
<rect x="190" y="10" width="10" height="30" fill="#48130F" />
<rect x="90" y="20" width="10" height="20" fill="#370B0B" />
<rect x="120" y="20" width="40" height="10" fill="#5F2225" />
<rect x="180" y="20" width="10" height="20" fill="#370B0B" />
<rect x="100" y="30" width="10" height="10" fill="#370B0B" />
<rect x="110" y="30" width="40" height="10" fill="#5F2225" />
<rect x="150" y="30" width="10" height="30" fill="#622D2A" />
<rect x="160" y="30" width="10" height="10" fill="#5F2225" />
<rect x="170" y="30" width="10" height="10" fill="#370B0B" />
<rect x="80" y="40" width="10" height="10" fill="#370B0B" />
<rect x="90" y="40" width="10" height="10" fill="#5F2225" />
<rect x="100" y="40" width="10" height="20" fill="#622D2A" />
<rect x="110" y="40" width="20" height="10" fill="#5F2225" />
<rect x="130" y="40" width="20" height="10" fill="#622D2A" />
<rect x="160" y="40" width="20" height="20" fill="#622D2A" />
<rect x="180" y="40" width="10" height="10" fill="#5F2225" />
<rect x="190" y="40" width="10" height="10" fill="#370B0B" />
<rect x="80" y="50" width="10" height="10" fill="#5F2225" />
<rect x="90" y="50" width="10" height="30" fill="#622D2A" />
<rect x="110" y="50" width="20" height="10" fill="#622D2A" />
<rect x="130" y="50" width="10" height="10" fill="#5F2225" />
<rect x="140" y="50" width="10" height="20" fill="#622D2A" />
<rect x="180" y="50" width="10" height="20" fill="#622D2A" />
<rect x="190" y="50" width="10" height="10" fill="#5F2225" />
<rect x="80" y="60" width="10" height="20" fill="#622D2A" />
<rect x="100" y="60" width="30" height="10" fill="#753629" />
<rect x="130" y="60" width="10" height="10" fill="#622D2A" />
<rect x="150" y="60" width="30" height="10" fill="#753629" />
<rect x="190" y="60" width="10" height="20" fill="#622D2A" />
<rect x="100" y="70" width="20" height="20" fill="#B86433" />
<rect x="120" y="70" width="10" height="10" fill="#AD5736" />
<rect x="130" y="70" width="20" height="10" fill="#753629" />
<rect x="150" y="70" width="10" height="10" fill="#AD5736" />
<rect x="160" y="70" width="20" height="20" fill="#B86433" />
<rect x="180" y="70" width="10" height="10" fill="#753629" />
<rect x="80" y="80" width="10" height="10" fill="#753629" />
<rect x="90" y="80" width="10" height="70" fill="#B86433" />
<rect x="120" y="80" width="10" height="30" fill="#B86433" />
<rect x="130" y="80" width="20" height="10" fill="#AD5736" />
<rect x="150" y="80" width="10" height="30" fill="#B86433" />
<rect x="180" y="80" width="10" height="30" fill="#B86433" />
<rect x="190" y="80" width="10" height="10" fill="#753629" />
<rect x="70" y="90" width="10" height="10" fill="#B86433" />
<rect x="80" y="90" width="10" height="10" fill="#622D2A" />
<rect x="100" y="90" width="10" height="10" fill="#5B241C" />
<rect x="110" y="90" width="10" height="10" fill="#632822" />
<rect x="130" y="90" width="20" height="20" fill="#B86433" />
<rect x="160" y="90" width="10" height="10" fill="#5B241C" />
<rect x="170" y="90" width="10" height="10" fill="#632822" />
<rect x="190" y="90" width="10" height="10" fill="#622D2A" />
<rect x="200" y="90" width="10" height="10" fill="#B86433" />
<rect x="60" y="100" width="10" height="10" fill="#B86433" />
<rect x="70" y="100" width="10" height="10" fill="#B46036" />
<rect x="80" y="100" width="10" height="30" fill="#B86433" />
<rect x="100" y="100" width="10" height="10" fill="#53211F" />
<rect x="110" y="100" width="10" height="10" fill="#5B241C" />
<rect x="160" y="100" width="10" height="10" fill="#53211F" />
<rect x="170" y="100" width="10" height="10" fill="#5B241C" />
<rect x="190" y="100" width="10" height="30" fill="#B86433" />
<rect x="200" y="100" width="10" height="10" fill="#B46036" />
<rect x="210" y="100" width="10" height="10" fill="#B86433" />
<rect x="60" y="110" width="10" height="10" fill="#B46036" />
<rect x="70" y="110" width="10" height="10" fill="#AD5736" />
<rect x="100" y="110" width="20" height="10" fill="#B46036" />
<rect x="120" y="110" width="10" height="10" fill="#AD5736" />
<rect x="130" y="110" width="20" height="10" fill="#9C5135" />
<rect x="150" y="110" width="10" height="10" fill="#AD5736" />
<rect x="160" y="110" width="30" height="10" fill="#B46036" />
<rect x="200" y="110" width="10" height="10" fill="#AD5736" />
<rect x="210" y="110" width="10" height="10" fill="#B46036" />
<rect x="100" y="120" width="20" height="10" fill="#AD5736" />
<rect x="120" y="120" width="10" height="10" fill="#63221E" />
<rect x="130" y="120" width="20" height="10" fill="#562422" />
<rect x="150" y="120" width="10" height="10" fill="#63221E" />
<rect x="160" y="120" width="20" height="10" fill="#AD5736" />
<rect x="180" y="120" width="10" height="30" fill="#B86433" />
<rect x="80" y="130" width="10" height="10" fill="#B46036" />
<rect x="100" y="130" width="10" height="20" fill="#B86433" />
<rect x="110" y="130" width="20" height="10" fill="#AD5736" />
<rect x="130" y="130" width="20" height="10" fill="#61261F" />
<rect x="150" y="130" width="20" height="10" fill="#AD5736" />
<rect x="170" y="130" width="10" height="20" fill="#B86433" />
<rect x="190" y="130" width="10" height="10" fill="#B46036" />
<rect x="110" y="140" width="20" height="10" fill="#B86433" />
<rect x="130" y="140" width="20" height="10" fill="#9C5135" />
<rect x="150" y="140" width="20" height="10" fill="#B86433" />
<rect x="80" y="150" width="10" height="30" fill="#622D2A" />
<rect x="90" y="150" width="40" height="10" fill="#B46036" />
<rect x="130" y="150" width="20" height="20" fill="#AD5736" />
<rect x="150" y="150" width="40" height="10" fill="#B46036" />
<rect x="190" y="150" width="10" height="30" fill="#622D2A" />
<rect x="90" y="160" width="10" height="10" fill="#622D2A" />
<rect x="100" y="160" width="10" height="20" fill="#5F2225" />
<rect x="110" y="160" width="10" height="10" fill="#622D2A" />
<rect x="120" y="160" width="10" height="10" fill="#AD5736" />
<rect x="150" y="160" width="10" height="10" fill="#AD5736" />
<rect x="160" y="160" width="30" height="10" fill="#622D2A" />
<rect x="70" y="170" width="10" height="30" fill="#3C35BD" />
<rect x="90" y="170" width="10" height="10" fill="#5F2225" />
<rect x="110" y="170" width="10" height="10" fill="#5F2225" />
<rect x="120" y="170" width="30" height="10" fill="#622D2A" />
<rect x="150" y="170" width="20" height="10" fill="#5F2225" />
<rect x="170" y="170" width="20" height="10" fill="#622D2A" />
<rect x="200" y="170" width="10" height="30" fill="#3C35BD" />
<rect x="60" y="180" width="10" height="20" fill="#3C35BD" />
<rect x="80" y="180" width="10" height="10" fill="#423292" />
<rect x="90" y="180" width="30" height="10" fill="#541C1E" />
<rect x="120" y="180" width="10" height="10" fill="#5F2225" />
<rect x="130" y="180" width="50" height="10" fill="#541C1E" />
<rect x="180" y="180" width="10" height="10" fill="#5F2225" />
<rect x="190" y="180" width="10" height="10" fill="#3C35BD" />
<rect x="210" y="180" width="10" height="30" fill="#3C35BD" />
<rect x="50" y="190" width="10" height="20" fill="#3C35BD" />
<rect x="80" y="190" width="10" height="10" fill="#312879" />
<rect x="90" y="190" width="20" height="10" fill="#423292" />
<rect x="110" y="190" width="10" height="10" fill="#312879" />
<rect x="120" y="190" width="40" height="10" fill="#541C1E" />
<rect x="160" y="190" width="10" height="10" fill="#312879" />
<rect x="170" y="190" width="10" height="10" fill="#423292" />
<rect x="180" y="190" width="10" height="10" fill="#3C35BD" />
<rect x="190" y="190" width="10" height="10" fill="#312879" />
<rect x="220" y="190" width="10" height="30" fill="#3C35BD" />
<rect x="40" y="200" width="10" height="20" fill="#3C35BD" />
<rect x="60" y="200" width="10" height="10" fill="#423292" />
<rect x="70" y="200" width="30" height="10" fill="#F7F7F8" />
<rect x="100" y="200" width="50" height="10" fill="#423292" />
<rect x="150" y="200" width="30" height="10" fill="#3C35BD" />
<rect x="180" y="200" width="30" height="10" fill="#F7F7F8" />
<rect x="230" y="200" width="10" height="20" fill="#3C35BD" />
<rect x="30" y="210" width="10" height="10" fill="#3C35BD" />
<rect x="50" y="210" width="10" height="10" fill="#423292" />
<rect x="60" y="210" width="30" height="10" fill="#F7F7F8" />
<rect x="90" y="210" width="10" height="10" fill="#B0B0B1" />
<rect x="100" y="210" width="10" height="10" fill="#F7F7F8" />
<rect x="110" y="210" width="60" height="10" fill="#3C35BD" />
<rect x="170" y="210" width="10" height="10" fill="#F7F7F8" />
<rect x="180" y="210" width="10" height="10" fill="#B0B0B1" />
<rect x="190" y="210" width="30" height="10" fill="#F7F7F8" />
<rect x="240" y="210" width="10" height="10" fill="#3C35BD" />
<rect x="30" y="220" width="10" height="10" fill="#B86433" />
<rect x="40" y="220" width="20" height="10" fill="#B46036" />
<rect x="60" y="220" width="10" height="10" fill="#F7F7F8" />
<rect x="70" y="220" width="10" height="10" fill="#D4D3D6" />
<rect x="80" y="220" width="10" height="10" fill="#B0B0B1" />
<rect x="90" y="220" width="10" height="10" fill="#F7F7F8" />
<rect x="100" y="220" width="10" height="10" fill="#D4D3D6" />
<rect x="110" y="220" width="10" height="20" fill="#B0B0B1" />
<rect x="120" y="220" width="40" height="20" fill="#3632A1" />
<rect x="160" y="220" width="10" height="20" fill="#B0B0B1" />
<rect x="170" y="220" width="10" height="10" fill="#D4D3D6" />
<rect x="180" y="220" width="10" height="10" fill="#F7F7F8" />
<rect x="190" y="220" width="10" height="10" fill="#B0B0B1" />
<rect x="200" y="220" width="10" height="10" fill="#D4D3D6" />
<rect x="210" y="220" width="10" height="10" fill="#F7F7F8" />
<rect x="220" y="220" width="20" height="10" fill="#B46036" />
<rect x="240" y="220" width="10" height="10" fill="#B86433" />
<rect x="20" y="230" width="10" height="10" fill="#B86433" />
<rect x="30" y="230" width="10" height="10" fill="#B46036" />
<rect x="40" y="230" width="10" height="50" fill="#AE5834" />
<rect x="50" y="230" width="10" height="10" fill="#D4D3D6" />
<rect x="60" y="230" width="20" height="10" fill="#B0B0B1" />
<rect x="80" y="230" width="20" height="10" fill="#D4D3D6" />
<rect x="100" y="230" width="10" height="10" fill="#B0B0B1" />
<rect x="170" y="230" width="10" height="10" fill="#B0B0B1" />
<rect x="180" y="230" width="20" height="10" fill="#D4D3D6" />
<rect x="200" y="230" width="20" height="10" fill="#B0B0B1" />
<rect x="220" y="230" width="10" height="10" fill="#D4D3D6" />
<rect x="230" y="230" width="10" height="50" fill="#AE5834" />
<rect x="240" y="230" width="10" height="10" fill="#B46036" />
<rect x="250" y="230" width="10" height="10" fill="#B86433" />
<rect x="10" y="240" width="10" height="10" fill="#B86433" />
<rect x="20" y="240" width="20" height="40" fill="#AE5834" />
<rect x="50" y="240" width="10" height="30" fill="#AE5834" />
<rect x="60" y="240" width="10" height="10" fill="#D4D3D6" />
<rect x="70" y="240" width="30" height="10" fill="#B0B0B1" />
<rect x="100" y="240" width="10" height="10" fill="#808184" />
<rect x="110" y="240" width="30" height="10" fill="#312879" />
<rect x="140" y="240" width="10" height="10" fill="#A7A5D4" />
<rect x="150" y="240" width="10" height="10" fill="#3632A1" />
<rect x="160" y="240" width="10" height="10" fill="#312879" />
<rect x="170" y="240" width="10" height="10" fill="#808184" />
<rect x="180" y="240" width="30" height="10" fill="#B0B0B1" />
<rect x="210" y="240" width="10" height="10" fill="#D4D3D6" />
<rect x="220" y="240" width="10" height="30" fill="#AE5834" />
<rect x="240" y="240" width="20" height="40" fill="#AE5834" />
<rect x="260" y="240" width="10" height="10" fill="#B86433" />
<rect x="0" y="250" width="10" height="10" fill="#B86433" />
<rect x="10" y="250" width="10" height="30" fill="#AE5834" />
<rect x="60" y="250" width="10" height="20" fill="#AE5834" />
<rect x="70" y="250" width="10" height="10" fill="#B0B0B1" />
<rect x="80" y="250" width="20" height="10" fill="#808184" />
<rect x="100" y="250" width="30" height="10" fill="#312879" />
<rect x="130" y="250" width="20" height="10" fill="#A5A1C3" />
<rect x="150" y="250" width="10" height="10" fill="#312879" />
<rect x="160" y="250" width="20" height="30" fill="#25257E" />
<rect x="180" y="250" width="20" height="10" fill="#808184" />
<rect x="200" y="250" width="10" height="10" fill="#B0B0B1" />
<rect x="210" y="250" width="10" height="20" fill="#AE5834" />
<rect x="260" y="250" width="10" height="30" fill="#AE5834" />
<rect x="270" y="250" width="10" height="10" fill="#B86433" />
<rect x="0" y="260" width="10" height="10" fill="#B46036" />
<rect x="70" y="260" width="10" height="10" fill="#D4D3D6" />
<rect x="80" y="260" width="20" height="10" fill="#25257E" />
<rect x="100" y="260" width="20" height="30" fill="#2B2A8F" />
<rect x="120" y="260" width="20" height="10" fill="#312879" />
<rect x="140" y="260" width="10" height="10" fill="#A5A1C3" />
<rect x="150" y="260" width="10" height="30" fill="#25257E" />
<rect x="180" y="260" width="20" height="20" fill="#25257E" />
<rect x="200" y="260" width="10" height="10" fill="#D4D3D6" />
<rect x="270" y="260" width="10" height="10" fill="#B46036" />
<rect x="80" y="270" width="10" height="30" fill="#3C35BD" />
<rect x="90" y="270" width="10" height="10" fill="#2B2A8F" />
<rect x="120" y="270" width="10" height="10" fill="#2B2A8F" />
<rect x="130" y="270" width="10" height="30" fill="#25257E" />
<rect x="140" y="270" width="10" height="20" fill="#A0A0C5" />
<rect x="90" y="280" width="10" height="40" fill="#312879" />
<rect x="120" y="280" width="10" height="20" fill="#25257E" />
<rect x="160" y="280" width="20" height="10" fill="#312879" />
<rect x="180" y="280" width="10" height="20" fill="#25257E" />
<rect x="190" y="280" width="10" height="40" fill="#3C35BD" />
<rect x="100" y="290" width="20" height="10" fill="#25257E" />
<rect x="140" y="290" width="10" height="10" fill="#A5A1C3" />
<rect x="150" y="290" width="10" height="10" fill="#312879" />
<rect x="160" y="290" width="10" height="10" fill="#2B2A8F" />
<rect x="170" y="290" width="10" height="20" fill="#25257E" />
<rect x="80" y="300" width="10" height="20" fill="#312879" />
<rect x="100" y="300" width="30" height="10" fill="#312879" />
<rect x="130" y="300" width="20" height="10" fill="#3632A1" />
<rect x="150" y="300" width="10" height="10" fill="#2B2A8F" />
<rect x="160" y="300" width="10" height="10" fill="#25257E" />
<rect x="180" y="300" width="10" height="20" fill="#3C35BD" />
<rect x="100" y="310" width="10" height="10" fill="#312879" />
<rect x="110" y="310" width="10" height="10" fill="#3632A1" />
<rect x="120" y="310" width="10" height="10" fill="#3C35BD" />
<rect x="130" y="310" width="10" height="10" fill="#2B2A8F" />
<rect x="140" y="310" width="20" height="10" fill="#25257E" />
<rect x="160" y="310" width="20" height="20" fill="#3C35BD" />
<rect x="80" y="320" width="10" height="20" fill="#3632A1" />
<rect x="90" y="320" width="30" height="10" fill="#3C35BD" />
<rect x="120" y="320" width="10" height="10" fill="#2B2A8F" />
<rect x="130" y="320" width="20" height="10" fill="#25257E" />
<rect x="150" y="320" width="10" height="10" fill="#3C35BD" />
<rect x="180" y="320" width="20" height="20" fill="#3632A1" />
<rect x="70" y="330" width="10" height="10" fill="#1A1F65" />
<rect x="90" y="330" width="10" height="10" fill="#3632A1" />
<rect x="100" y="330" width="10" height="10" fill="#3C35BD" />
<rect x="110" y="330" width="10" height="10" fill="#2B2A8F" />
<rect x="120" y="330" width="10" height="10" fill="#25257E" />
<rect x="130" y="330" width="20" height="10" fill="#3C35BD" />
<rect x="150" y="330" width="30" height="20" fill="#3632A1" />
<rect x="200" y="330" width="10" height="10" fill="#1A1F65" />
<rect x="70" y="340" width="10" height="20" fill="#0A1A67" />
<rect x="80" y="340" width="20" height="10" fill="#07164A" />
<rect x="100" y="340" width="50" height="10" fill="#3632A1" />
<rect x="180" y="340" width="20" height="10" fill="#07164A" />
<rect x="200" y="340" width="10" height="20" fill="#0A1A67" />
<rect x="60" y="350" width="10" height="10" fill="#1A1F65" />
<rect x="80" y="350" width="10" height="10" fill="#09195C" />
<rect x="90" y="350" width="10" height="10" fill="#081859" />
<rect x="100" y="350" width="20" height="10" fill="#07164A" />
<rect x="120" y="350" width="20" height="10" fill="#07143F" />
<rect x="140" y="350" width="10" height="20" fill="#07164A" />
<rect x="150" y="350" width="10" height="10" fill="#07143F" />
<rect x="160" y="350" width="20" height="10" fill="#07164A" />
<rect x="180" y="350" width="10" height="10" fill="#081859" />
<rect x="190" y="350" width="10" height="10" fill="#09195C" />
<rect x="210" y="350" width="10" height="10" fill="#1A1F65" />
<rect x="60" y="360" width="10" height="20" fill="#0A1A67" />
<rect x="70" y="360" width="10" height="10" fill="#081859" />
<rect x="80" y="360" width="30" height="10" fill="#07164A" />
<rect x="110" y="360" width="10" height="10" fill="#071541" />
<rect x="120" y="360" width="10" height="10" fill="#07164A" />
<rect x="130" y="360" width="10" height="10" fill="#07143F" />
<rect x="150" y="360" width="10" height="10" fill="#07164A" />
<rect x="160" y="360" width="10" height="10" fill="#071541" />
<rect x="170" y="360" width="30" height="10" fill="#07164A" />
<rect x="200" y="360" width="10" height="10" fill="#081859" />
<rect x="210" y="360" width="10" height="20" fill="#0A1A67" />
<rect x="70" y="370" width="20" height="10" fill="#0A1A67" />
<rect x="90" y="370" width="10" height="10" fill="#09195C" />
<rect x="100" y="370" width="20" height="10" fill="#07164A" />
<rect x="120" y="370" width="40" height="10" fill="#07133C" />
<rect x="160" y="370" width="20" height="10" fill="#07164A" />
<rect x="180" y="370" width="10" height="10" fill="#09195C" />
<rect x="190" y="370" width="20" height="10" fill="#0A1A67" />
<rect x="50" y="380" width="30" height="20" fill="#1A1F65" />
<rect x="80" y="380" width="20" height="10" fill="#0A1A67" />
<rect x="100" y="380" width="10" height="10" fill="#09195C" />
<rect x="110" y="380" width="20" height="10" fill="#07164A" />
<rect x="150" y="380" width="20" height="10" fill="#07164A" />
<rect x="170" y="380" width="10" height="10" fill="#09195C" />
<rect x="180" y="380" width="20" height="10" fill="#0A1A67" />
<rect x="200" y="380" width="30" height="20" fill="#1A1F65" />
<rect x="80" y="390" width="10" height="20" fill="#1A1F65" />
<rect x="90" y="390" width="20" height="10" fill="#0A1A67" />
<rect x="110" y="390" width="10" height="20" fill="#07164A" />
<rect x="160" y="390" width="10" height="20" fill="#07164A" />
<rect x="170" y="390" width="20" height="10" fill="#0A1A67" />
<rect x="190" y="390" width="10" height="20" fill="#1A1F65" />
<rect x="50" y="400" width="10" height="10" fill="#1A1F65" />
<rect x="60" y="400" width="20" height="10" fill="#AE5834" />
<rect x="90" y="400" width="20" height="10" fill="#07164A" />
<rect x="170" y="400" width="20" height="10" fill="#07164A" />
<rect x="200" y="400" width="20" height="10" fill="#AE5834" />
<rect x="220" y="400" width="10" height="10" fill="#1A1F65" />
<rect x="50" y="410" width="10" height="10" fill="#B46036" />
<rect x="60" y="410" width="20" height="40" fill="#B86433" />
<rect x="80" y="410" width="10" height="10" fill="#B46036" />
<rect x="90" y="410" width="10" height="10" fill="#AE5834" />
<rect x="100" y="410" width="10" height="10" fill="#07164A" />
<rect x="170" y="410" width="10" height="10" fill="#07164A" />
<rect x="180" y="410" width="10" height="10" fill="#AE5834" />
<rect x="190" y="410" width="10" height="10" fill="#B46036" />
<rect x="200" y="410" width="20" height="40" fill="#B86433" />
<rect x="220" y="410" width="10" height="10" fill="#B46036" />
<rect x="50" y="420" width="10" height="70" fill="#B86433" />
<rect x="80" y="420" width="20" height="10" fill="#B86433" />
<rect x="180" y="420" width="20" height="10" fill="#B86433" />
<rect x="220" y="420" width="10" height="70" fill="#B86433" />
<rect x="80" y="430" width="10" height="10" fill="#B86433" />
<rect x="90" y="430" width="10" height="10" fill="#B46036" />
<rect x="180" y="430" width="10" height="10" fill="#B46036" />
<rect x="190" y="430" width="10" height="10" fill="#B86433" />
<rect x="80" y="440" width="10" height="10" fill="#B46036" />
<rect x="90" y="440" width="10" height="20" fill="#AE5834" />
<rect x="180" y="440" width="10" height="20" fill="#AE5834" />
<rect x="190" y="440" width="10" height="10" fill="#B46036" />
<rect x="60" y="450" width="10" height="30" fill="#B86433" />
<rect x="70" y="450" width="10" height="30" fill="#B46036" />
<rect x="80" y="450" width="10" height="50" fill="#AE5834" />
<rect x="190" y="450" width="10" height="50" fill="#AE5834" />
<rect x="200" y="450" width="10" height="30" fill="#B46036" />
<rect x="210" y="450" width="10" height="30" fill="#B86433" />
<rect x="60" y="480" width="20" height="20" fill="#9C5135" />
<rect x="200" y="480" width="20" height="20" fill="#9C5135" />
<rect x="50" y="490" width="10" height="10" fill="#9C5135" />
<rect x="220" y="490" width="10" height="10" fill="#9C5135" />
<rect x="50" y="500" width="30" height="20" fill="#48130F" />
<rect x="80" y="500" width="10" height="10" fill="#9C5135" />
<rect x="190" y="500" width="10" height="10" fill="#9C5135" />
<rect x="200" y="500" width="30" height="20" fill="#48130F" />
<rect x="40" y="510" width="10" height="20" fill="#48130F" />
<rect x="80" y="510" width="10" height="30" fill="#3D0E0D" />
<rect x="190" y="510" width="10" height="30" fill="#3D0E0D" />
<rect x="230" y="510" width="10" height="20" fill="#48130F" />
<rect x="30" y="520" width="10" height="20" fill="#48130F" />
<rect x="50" y="520" width="10" height="10" fill="#370B0B" />
<rect x="60" y="520" width="10" height="10" fill="#48130F" />
<rect x="70" y="520" width="10" height="20" fill="#3D0E0D" />
<rect x="200" y="520" width="10" height="20" fill="#3D0E0D" />
<rect x="210" y="520" width="10" height="10" fill="#48130F" />
<rect x="220" y="520" width="10" height="10" fill="#370B0B" />
<rect x="240" y="520" width="10" height="20" fill="#48130F" />
<rect x="40" y="530" width="10" height="10" fill="#370B0B" />
<rect x="50" y="530" width="10" height="10" fill="#48130F" />
<rect x="60" y="530" width="10" height="10" fill="#3D0E0D" />
<rect x="210" y="530" width="10" height="10" fill="#3D0E0D" />
<rect x="220" y="530" width="10" height="10" fill="#48130F" />
<rect x="230" y="530" width="10" height="10" fill="#370B0B" />
</svg>