<?xml version="1.0" encoding="UTF-8" ?>
<svg version="1.1" width="140" height="140" xmlns="http://www.w3.org/2000/svg" shape-rendering="crispEdges">
<rect x="50" y="0" width="20" height="10" fill="#F7F7F8" />
<rect x="70" y="0" width="10" height="10" fill="#414145" />
<rect x="80" y="0" width="10" height="10" fill="#5C5B5F" />
<rect x="30" y="10" width="10" height="10" fill="#F7F7F8" />
<rect x="40" y="10" width="20" height="10" fill="#D4D3D6" />
<rect x="60" y="10" width="40" height="10" fill="#202125" />
<rect x="100" y="10" width="10" height="30" fill="#F7F7F8" />
<rect x="20" y="20" width="10" height="10" fill="#414145" />
<rect x="30" y="20" width="10" height="10" fill="#D4D3D6" />
<rect x="40" y="20" width="30" height="20" fill="#F7F7F8" />
<rect x="70" y="20" width="20" height="10" fill="#11110F" />
<rect x="90" y="20" width="10" height="10" fill="#F7F7F8" />
<rect x="110" y="20" width="10" height="10" fill="#414145" />
<rect x="10" y="30" width="10" height="10" fill="#202125" />
<rect x="20" y="30" width="10" height="10" fill="#11110F" />
<rect x="30" y="30" width="10" height="30" fill="#F7F7F8" />
<rect x="70" y="30" width="10" height="10" fill="#D4D3D6" />
<rect x="80" y="30" width="10" height="40" fill="#F7F7F8" />
<rect x="90" y="30" width="10" height="10" fill="#D4D3D6" />
<rect x="110" y="30" width="10" height="30" fill="#F7F7F8" />
<rect x="120" y="30" width="10" height="10" fill="#11110F" />
<rect x="10" y="40" width="10" height="10" fill="#11110F" />
<rect x="20" y="40" width="10" height="20" fill="#D4D3D6" />
<rect x="40" y="40" width="20" height="20" fill="#F7F7F8" />
<rect x="60" y="40" width="10" height="20" fill="#D4D3D6" />
<rect x="70" y="40" width="10" height="30" fill="#F7F7F8" />
<rect x="90" y="40" width="10" height="30" fill="#F7F7F8" />
<rect x="100" y="40" width="10" height="20" fill="#D4D3D6" />
<rect x="120" y="40" width="10" height="20" fill="#F7F7F8" />
<rect x="0" y="50" width="20" height="20" fill="#F7F7F8" />
<rect x="130" y="50" width="10" height="10" fill="#B0B0B1" />
<rect x="20" y="60" width="10" height="30" fill="#F7F7F8" />
<rect x="30" y="60" width="10" height="10" fill="#D4D3D6" />
<rect x="40" y="60" width="10" height="10" fill="#414145" />
<rect x="50" y="60" width="10" height="10" fill="#5C5B5F" />
<rect x="60" y="60" width="10" height="10" fill="#F7F7F8" />
<rect x="100" y="60" width="10" height="10" fill="#F7F7F8" />
<rect x="110" y="60" width="10" height="10" fill="#414145" />
<rect x="120" y="60" width="10" height="10" fill="#5C5B5F" />
<rect x="130" y="60" width="10" height="10" fill="#F7F7F8" />
<rect x="0" y="70" width="10" height="20" fill="#E7E7E8" />
<rect x="10" y="70" width="10" height="10" fill="#F7F7F8" />
<rect x="30" y="70" width="40" height="10" fill="#202125" />
<rect x="70" y="70" width="30" height="10" fill="#D4D3D6" />
<rect x="100" y="70" width="30" height="10" fill="#202125" />
<rect x="130" y="70" width="10" height="20" fill="#E7E7E8" />
<rect x="10" y="80" width="10" height="20" fill="#E7E7E8" />
<rect x="30" y="80" width="20" height="10" fill="#11110F" />
<rect x="50" y="80" width="20" height="10" fill="#202125" />
<rect x="70" y="80" width="30" height="10" fill="#F7F7F8" />
<rect x="100" y="80" width="30" height="10" fill="#11110F" />
<rect x="20" y="90" width="10" height="10" fill="#B0B0B1" />
<rect x="30" y="90" width="10" height="40" fill="#E7E7E8" />
<rect x="40" y="90" width="20" height="10" fill="#11110F" />
<rect x="60" y="90" width="20" height="20" fill="#E7E7E8" />
<rect x="80" y="90" width="20" height="10" fill="#F7F7F8" />
<rect x="100" y="90" width="10" height="10" fill="#E7E7E8" />
<rect x="110" y="90" width="10" height="10" fill="#11110F" />
<rect x="120" y="90" width="10" height="20" fill="#E7E7E8" />
<rect x="10" y="100" width="10" height="10" fill="#11110F" />
<rect x="20" y="100" width="10" height="10" fill="#DBDBDC" />
<rect x="40" y="100" width="10" height="30" fill="#E7E7E8" />
<rect x="50" y="100" width="10" height="10" fill="#B0B0B1" />
<rect x="80" y="100" width="20" height="10" fill="#E7E7E8" />
<rect x="100" y="100" width="10" height="10" fill="#B0B0B1" />
<rect x="110" y="100" width="10" height="20" fill="#E7E7E8" />
<rect x="20" y="110" width="10" height="10" fill="#11110F" />
<rect x="50" y="110" width="10" height="20" fill="#E7E7E8" />
<rect x="60" y="110" width="10" height="10" fill="#B0B0B1" />
<rect x="70" y="110" width="20" height="10" fill="#E7E7E8" />
<rect x="90" y="110" width="10" height="10" fill="#B0B0B1" />
<rect x="100" y="110" width="10" height="20" fill="#E7E7E8" />
<rect x="60" y="120" width="20" height="20" fill="#11110F" />
<rect x="80" y="120" width="10" height="10" fill="#202125" />
<rect x="90" y="120" width="10" height="10" fill="#E7E7E8" />
<rect x="50" y="130" width="10" height="10" fill="#11110F" />
<rect x="80" y="130" width="10" height="10" fill="#11110F" />
</svg>