<svg width="36" height="36" viewBox="0 0 36 36" fill="none" xmlns="http://www.w3.org/2000/svg">
<g clip-path="url(#clip0_26_6226)">
<circle cx="18" cy="18" r="17" stroke="#18D4DD" stroke-width="2"/>
<path d="M16.3452 23.4545V23.3182C16.3603 21.8712 16.5118 20.7197 16.7997 19.8636C17.0876 19.0076 17.4967 18.3144 18.027 17.7841C18.5573 17.2538 19.1937 16.7652 19.9361 16.3182C20.383 16.0455 20.7846 15.7235 21.1406 15.3523C21.4967 14.9735 21.777 14.5379 21.9815 14.0455C22.1937 13.553 22.2997 13.0076 22.2997 12.4091C22.2997 11.6667 22.1255 11.0227 21.777 10.4773C21.4285 9.93182 20.9626 9.51136 20.3793 9.21591C19.7959 8.92045 19.1482 8.77273 18.4361 8.77273C17.8149 8.77273 17.2164 8.90151 16.6406 9.15909C16.0649 9.41667 15.5838 9.82197 15.1974 10.375C14.8111 10.928 14.5876 11.6515 14.527 12.5455H11.6634C11.724 11.2576 12.0573 10.1553 12.6634 9.23864C13.277 8.32197 14.0838 7.62121 15.0838 7.13636C16.0914 6.65151 17.2088 6.40909 18.4361 6.40909C19.7694 6.40909 20.9285 6.67424 21.9134 7.20454C22.9058 7.73485 23.6709 8.46212 24.2088 9.38636C24.7543 10.3106 25.027 11.3636 25.027 12.5455C25.027 13.3788 24.8982 14.1326 24.6406 14.8068C24.3906 15.4811 24.027 16.0833 23.5497 16.6136C23.08 17.1439 22.5118 17.6136 21.8452 18.0227C21.1785 18.4394 20.6444 18.8788 20.2429 19.3409C19.8414 19.7955 19.5497 20.3371 19.3679 20.9659C19.1861 21.5947 19.0876 22.3788 19.0724 23.3182V23.4545H16.3452ZM17.7997 30.1818C17.2391 30.1818 16.758 29.9811 16.3565 29.5795C15.955 29.178 15.7543 28.697 15.7543 28.1364C15.7543 27.5758 15.955 27.0947 16.3565 26.6932C16.758 26.2917 17.2391 26.0909 17.7997 26.0909C18.3603 26.0909 18.8414 26.2917 19.2429 26.6932C19.6444 27.0947 19.8452 27.5758 19.8452 28.1364C19.8452 28.5076 19.7505 28.8485 19.5611 29.1591C19.3793 29.4697 19.133 29.7197 18.8224 29.9091C18.5194 30.0909 18.1785 30.1818 17.7997 30.1818Z" fill="#18D4DD"/>
</g>
<defs>
<clipPath id="clip0_26_6226">
<rect width="36" height="36" fill="white"/>
</clipPath>
</defs>
</svg>
