<svg xmlns="http://www.w3.org/2000/svg" width="3096" height="1298" viewBox="0 0 3096 1298">
  <defs>
    <style>
      .cls-1 {
        fill: #00afc4;
        stroke: #0a0a0a;
        stroke-width: 1px;
        fill-rule: evenodd;
      }
    </style>
  </defs>
  <path id="Forma_1" data-name="Forma 1" class="cls-1" d="M1969,6H3094V8c1.53,6.915-24.85,45.432-30,54l-97,168q-183.48,318.968-367,638H2458v-1q213.48-367.464,427-735v-1H2040Q2004.51,68.506,1969,6ZM775,745q-0.5,61.494-1,123L1,867,490,8H636L326,546,240,695c-7.414,12.508-28.107,36.283-28,50H775ZM828,8H944l433,435c7.81-5.929,10.81-17.421,16-26q24-42,48-84,93.99-162.483,188-325l140,1q-168.99,292.971-338,586h-71Q1155.025,391.021,950,187h-1V866H828V8ZM1831,8h81q373.47,644.436,747,1289H2516q-209.475-359.97-419-720H1718q34.995-61.494,70-123l238-1v-1q-57-97.49-114-195c-8.09-13.619-30.36-64.7-42-70q-145.98,252.476-292,505-36.99,64.494-74,129c-7.08,12.51-14.85,37.838-27,45l-139,1v-1Q1584.48,437.044,1831,8Zm251,168h636c24.47,0,54.91-2.677,76,2,3.18,4.315,5.31,5.663,6,13q-127.485,222.477-255,445-34.995,60.995-70,122c-7.15,11.849-12.46,32.871-25,39h-10c-12.99-10.192,1.93-29.962,8-40q30-52.494,60-105,129.48-224.978,259-450c-0.33-.667-0.67-1.333-1-2H2129c-20.46,0-45.15,2.38-57-6-0.33-2.666-.67-5.334-1-8C2074.07,179.852,2076.1,179.3,2082,176Z"/>
</svg>
